<svg width="585" height="103" viewBox="0 0 585 103" fill="none" xmlns="http://www.w3.org/2000/svg">
<path d="M26.0547 29.5469L32.4219 69.7031L44.8438 52.4375L42.6562 35.7188C42.5 34.3906 42.3438 33.2708 42.1875 32.3594C42.0312 31.4219 41.888 30.6276 41.7578 29.9766C41.5755 29.1693 41.1198 28.4401 40.3906 27.7891C39.8958 27.4505 39.388 27.1641 38.8672 26.9297C38.3464 26.6693 37.9036 26.3828 37.5391 26.0703C37.2266 25.862 36.9922 25.5234 36.8359 25.0547C36.8359 24.8203 36.862 24.638 36.9141 24.5078C36.9401 24.3255 37.0182 24.1432 37.1484 23.9609C37.4089 23.5703 37.8516 23.375 38.4766 23.375H51.7188C52.2396 23.375 52.6823 23.5443 53.0469 23.8828C53.4115 24.1953 53.6068 24.4557 53.6328 24.6641C53.6849 24.7161 53.7109 24.8594 53.7109 25.0938C53.7109 25.3021 53.6849 25.4323 53.6328 25.4844C53.5547 25.7969 53.2682 26.1484 52.7734 26.5391C52.4089 26.7734 52.0573 27.0078 51.7188 27.2422C51.4062 27.4766 51.1458 27.75 50.9375 28.0625C50.8333 28.2448 50.7552 28.4401 50.7031 28.6484C50.6771 28.7526 50.6641 28.8698 50.6641 29C50.6641 29.1562 50.6901 29.3385 50.7422 29.5469L52.6562 41.5781L57.1094 35.3672C57.526 34.7943 57.7734 34.2604 57.8516 33.7656C57.9297 33.5833 57.9688 33.4141 57.9688 33.2578C57.9688 33.1276 57.9427 33.0104 57.8906 32.9062C57.5781 32.151 57.0703 31.1745 56.3672 29.9766L54.5703 27.2031L60.8984 23.1406C61.2891 22.8281 61.7318 22.6719 62.2266 22.6719C62.7995 22.6719 63.3333 22.9193 63.8281 23.4141L66.3281 26.7344C66.7448 27.3333 66.9531 28.0104 66.9531 28.7656C66.9531 29.1042 66.9141 29.4557 66.8359 29.8203C66.6797 30.4453 66.4193 31.1224 66.0547 31.8516C64.9609 33.7266 63.5156 35.9271 61.7188 38.4531L53.9062 49.3906L57.1094 69.7031L81.7969 35.3672C82.2135 34.7943 82.4609 34.2604 82.5391 33.7656C82.6172 33.5833 82.6562 33.4141 82.6562 33.2578C82.6562 33.1276 82.6302 33.0104 82.5781 32.9062C82.2656 32.151 81.7448 31.1745 81.0156 29.9766L79.2578 27.2031L85.5469 23.1406C85.9375 22.8281 86.3802 22.6719 86.875 22.6719C87.474 22.6719 88.0208 22.9193 88.5156 23.4141L91.0156 26.7344C91.4323 27.3333 91.6406 28.0104 91.6406 28.7656C91.6406 29.1042 91.6016 29.4557 91.5234 29.8203C91.3672 30.4453 91.1068 31.1224 90.7422 31.8516C89.6484 33.7266 88.2031 35.9271 86.4062 38.4531L58.0859 78.1016C57.7734 78.6484 57.4479 79.0521 57.1094 79.3125C56.7448 79.625 56.2891 79.7812 55.7422 79.7812H49.8828C49.1016 79.7812 48.6198 79.5339 48.4375 79.0391C48.3333 78.9349 48.2422 78.5833 48.1641 77.9844C48.0859 77.3854 48.0339 76.9688 48.0078 76.7344L45.9375 60.6016L33.3984 78.1016C33.0859 78.6484 32.7604 79.0521 32.4219 79.3125C32.0573 79.625 31.6016 79.7812 31.0547 79.7812H25.1953C24.4141 79.7812 23.9323 79.5339 23.75 79.0391C23.6458 78.9349 23.5547 78.5833 23.4766 77.9844C23.3984 77.3854 23.3464 76.9688 23.3203 76.7344L17.0703 29.9375C16.9661 29.2083 16.5104 28.4922 15.7031 27.7891C15.2083 27.4505 14.7005 27.1641 14.1797 26.9297C13.6589 26.6693 13.2161 26.3828 12.8516 26.0703C12.5391 25.862 12.3047 25.5234 12.1484 25.0547C12.1484 24.8203 12.1745 24.638 12.2266 24.5078C12.2526 24.3255 12.3307 24.1432 12.4609 23.9609C12.7214 23.5703 13.1641 23.375 13.7891 23.375H27.0312C27.526 23.375 27.9948 23.5443 28.4375 23.8828C28.75 24.2474 28.9193 24.5078 28.9453 24.6641C28.9974 24.7161 29.0234 24.8594 29.0234 25.0938C29.0234 25.3021 28.9974 25.4323 28.9453 25.4844C28.8672 25.7969 28.5807 26.1484 28.0859 26.5391C27.7214 26.7734 27.3698 27.0078 27.0312 27.2422C26.7188 27.4766 26.4583 27.75 26.25 28.0625C26.1458 28.2448 26.0677 28.4401 26.0156 28.6484C25.9896 28.7526 25.9766 28.8698 25.9766 29C25.9766 29.1562 26.0026 29.3385 26.0547 29.5469ZM104.922 76.8906L94.9219 80.2891C93.9062 80.6016 93.0599 80.7578 92.3828 80.7578H90.7422C86.7318 80.5495 83.6198 78.9089 81.4062 75.8359C79.7656 73.5182 78.9453 70.8099 78.9453 67.7109C78.9453 66.7995 79.0104 65.862 79.1406 64.8984C79.2969 63.7786 79.5052 62.6979 79.7656 61.6562C80.0781 60.3021 80.4688 58.974 80.9375 57.6719C81.7969 55.3542 83.2031 53.0625 85.1562 50.7969C86.1458 49.599 87.6562 48.3359 89.6875 47.0078C90.4167 46.5911 91.2109 46.2135 92.0703 45.875C94.388 45.0677 96.6667 44.2865 98.9062 43.5312C101.146 42.75 103.424 41.9557 105.742 41.1484C106.341 40.9661 106.901 40.875 107.422 40.875H107.656C109.427 40.9531 111.458 41.3958 113.75 42.2031C114.115 42.3333 114.31 42.4115 114.336 42.4375C114.727 42.6198 115.299 42.8542 116.055 43.1406C116.237 43.1927 116.406 43.2188 116.562 43.2188C116.745 43.2188 116.927 43.1667 117.109 43.0625C117.708 42.6198 118.138 42.2682 118.398 42.0078C118.737 41.6172 119.18 41.4219 119.727 41.4219C120.013 41.4219 120.286 41.474 120.547 41.5781C121.354 41.9167 121.758 42.3724 121.758 42.9453V43.1406L114.805 73.4531C114.701 73.8177 114.648 74.1432 114.648 74.4297C114.648 75.1328 114.909 75.5885 115.43 75.7969C116.888 76.3698 117.617 77.0859 117.617 77.9453C117.617 78.0755 117.591 78.2057 117.539 78.3359C117.331 79.2995 116.68 79.7812 115.586 79.7812H106.094C105.078 79.7812 104.57 79.4036 104.57 78.6484V78.4141L104.922 76.8906ZM111.367 49.1172C110.716 48.388 109.674 47.6458 108.242 46.8906C106.836 46.1094 105.56 45.6927 104.414 45.6406H104.297C103.906 45.6406 103.49 45.7188 103.047 45.875C102.031 46.2135 101.016 46.5651 100 46.9297C99.0104 47.2682 98.0078 47.6068 96.9922 47.9453C96.3932 48.1797 95.8984 48.4531 95.5078 48.7656C93.5807 50.4323 92.0833 52.4375 91.0156 54.7812C90.1562 56.5781 89.5312 58.362 89.1406 60.1328C89.0104 60.7057 88.9062 61.2786 88.8281 61.8516C88.6458 63.0495 88.5547 64.1562 88.5547 65.1719C88.5547 67.3073 88.9323 69.1302 89.6875 70.6406C90.7552 72.8281 92.3958 74.2474 94.6094 74.8984C95.4167 75.1589 96.263 75.2891 97.1484 75.2891C97.4349 75.2891 97.7474 75.276 98.0859 75.25C98.5547 75.1979 99.1927 75.0417 100 74.7812C100.599 74.599 101.589 74.2734 102.969 73.8047C104.349 73.3099 105.326 72.9583 105.898 72.75L111.367 49.1172ZM147.305 40.7969C151.289 41.0312 154.987 42.3724 158.398 44.8203L155.82 52.0859C155.56 52.8672 155 53.2578 154.141 53.2578H153.984C153.151 53.1797 152.617 52.6458 152.383 51.6562C151.966 49.8594 151.081 48.375 149.727 47.2031C148.398 46.0312 146.836 45.4062 145.039 45.3281H144.922C143.49 45.3281 141.966 45.6927 140.352 46.4219C138.763 47.1771 137.643 48.3099 136.992 49.8203C136.732 50.3672 136.562 50.849 136.484 51.2656C136.406 51.6042 136.367 51.9167 136.367 52.2031C136.367 53.0365 136.719 53.6484 137.422 54.0391C138.984 54.9245 140.872 55.6276 143.086 56.1484C146.341 56.9297 149.232 57.9714 151.758 59.2734C153.997 60.4193 155.117 62.4896 155.117 65.4844C155.117 66.2656 155.039 67.125 154.883 68.0625L154.805 68.4531C154.31 70.5104 153.047 72.5547 151.016 74.5859C148.802 76.7995 145.977 78.4661 142.539 79.5859C140.378 80.237 138.086 80.6016 135.664 80.6797H134.57C131.263 80.6797 127.995 80.1849 124.766 79.1953L123.516 69.9766L123.828 69.0781C124.089 68.2969 124.688 67.9062 125.625 67.9062H125.82C126.523 68.0625 127.005 68.5833 127.266 69.4688C127.839 71.8906 128.776 73.5833 130.078 74.5469C131.38 75.4844 133.229 75.9922 135.625 76.0703H136.094C137.812 76.0703 139.805 75.6667 142.07 74.8594C144.388 74.026 145.846 72.5156 146.445 70.3281L146.523 70.0938C146.628 69.5729 146.68 69.0911 146.68 68.6484C146.68 67.112 145.898 66.1094 144.336 65.6406C141.758 64.8594 139.505 64.1693 137.578 63.5703C135.052 62.8151 132.76 61.6302 130.703 60.0156C129.141 58.7396 128.359 57.0599 128.359 54.9766C128.359 54.2214 128.451 53.4401 128.633 52.6328L128.672 52.4375C129.714 48.1667 132.096 45.1068 135.82 43.2578C139.18 41.5911 142.669 40.7578 146.289 40.7578C146.628 40.7578 146.966 40.7708 147.305 40.7969ZM184.609 76.8906L174.609 80.2891C173.594 80.6016 172.747 80.7578 172.07 80.7578H170.43C166.419 80.5495 163.307 78.9089 161.094 75.8359C159.453 73.5182 158.633 70.8099 158.633 67.7109C158.633 66.7995 158.698 65.862 158.828 64.8984C158.984 63.7786 159.193 62.6979 159.453 61.6562C159.766 60.3021 160.156 58.974 160.625 57.6719C161.484 55.3542 162.891 53.0625 164.844 50.7969C165.833 49.599 167.344 48.3359 169.375 47.0078C170.104 46.5911 170.898 46.2135 171.758 45.875C174.076 45.0677 176.354 44.2865 178.594 43.5312C180.833 42.75 183.112 41.9557 185.43 41.1484C186.029 40.9661 186.589 40.875 187.109 40.875H187.344C189.115 40.9531 191.146 41.3958 193.438 42.2031C193.802 42.3333 193.997 42.4115 194.023 42.4375C194.414 42.6198 194.987 42.8542 195.742 43.1406C195.924 43.1927 196.094 43.2188 196.25 43.2188C196.432 43.2188 196.615 43.1667 196.797 43.0625C197.396 42.6198 197.826 42.2682 198.086 42.0078C198.424 41.6172 198.867 41.4219 199.414 41.4219C199.701 41.4219 199.974 41.474 200.234 41.5781C201.042 41.9167 201.445 42.3724 201.445 42.9453V43.1406L194.492 73.4531C194.388 73.8177 194.336 74.1432 194.336 74.4297C194.336 75.1328 194.596 75.5885 195.117 75.7969C196.576 76.3698 197.305 77.0859 197.305 77.9453C197.305 78.0755 197.279 78.2057 197.227 78.3359C197.018 79.2995 196.367 79.7812 195.273 79.7812H185.781C184.766 79.7812 184.258 79.4036 184.258 78.6484V78.4141L184.609 76.8906ZM191.055 49.1172C190.404 48.388 189.362 47.6458 187.93 46.8906C186.523 46.1094 185.247 45.6927 184.102 45.6406H183.984C183.594 45.6406 183.177 45.7188 182.734 45.875C181.719 46.2135 180.703 46.5651 179.688 46.9297C178.698 47.2682 177.695 47.6068 176.68 47.9453C176.081 48.1797 175.586 48.4531 175.195 48.7656C173.268 50.4323 171.771 52.4375 170.703 54.7812C169.844 56.5781 169.219 58.362 168.828 60.1328C168.698 60.7057 168.594 61.2786 168.516 61.8516C168.333 63.0495 168.242 64.1562 168.242 65.1719C168.242 67.3073 168.62 69.1302 169.375 70.6406C170.443 72.8281 172.083 74.2474 174.297 74.8984C175.104 75.1589 175.951 75.2891 176.836 75.2891C177.122 75.2891 177.435 75.276 177.773 75.25C178.242 75.1979 178.88 75.0417 179.688 74.7812C180.286 74.599 181.276 74.2734 182.656 73.8047C184.036 73.3099 185.013 72.9583 185.586 72.75L191.055 49.1172ZM213.672 46.8125C213.49 46.8125 212.396 46.8646 210.391 46.9688H210.156C209.089 46.9688 208.555 46.526 208.555 45.6406C208.555 45.5104 208.568 45.4062 208.594 45.3281V45.25C208.776 44.5469 209.284 44.013 210.117 43.6484C210.664 43.4141 211.862 42.8672 213.711 42.0078C214.154 41.7734 214.596 41.5781 215.039 41.4219C215.117 41.3958 215.156 41.3698 215.156 41.3438C215.156 41.3177 215.078 41.3047 214.922 41.3047L216.328 35.2891C216.667 33.8047 217.214 32.776 217.969 32.2031C218.724 31.6042 220.208 30.8229 222.422 29.8594C223.359 29.4688 224.115 29.2734 224.688 29.2734C225.807 29.2734 226.367 29.7422 226.367 30.6797C226.367 30.8359 226.354 31.0052 226.328 31.1875L224.023 41.1484L232.188 40.9922H232.227C233.164 40.9922 233.633 41.4219 233.633 42.2812C233.633 42.4896 233.607 42.7109 233.555 42.9453C233.451 43.3359 233.281 43.8047 233.047 44.3516C232.344 45.9401 231.302 46.7344 229.922 46.7344L222.773 46.6953L217.266 70.5234C217.109 71.1745 217.031 71.7604 217.031 72.2812C217.031 73.5312 217.435 74.4948 218.242 75.1719C219.466 76.2135 220.885 76.8516 222.5 77.0859L221.797 79.7422C217.292 79.7422 213.75 79.3646 211.172 78.6094C209.036 77.9844 207.969 76.2526 207.969 73.4141C207.969 72.1901 208.151 70.7578 208.516 69.1172L213.672 46.8125ZM256.406 76.8906L246.406 80.2891C245.391 80.6016 244.544 80.7578 243.867 80.7578H242.227C238.216 80.5495 235.104 78.9089 232.891 75.8359C231.25 73.5182 230.43 70.8099 230.43 67.7109C230.43 66.7995 230.495 65.862 230.625 64.8984C230.781 63.7786 230.99 62.6979 231.25 61.6562C231.562 60.3021 231.953 58.974 232.422 57.6719C233.281 55.3542 234.688 53.0625 236.641 50.7969C237.63 49.599 239.141 48.3359 241.172 47.0078C241.901 46.5911 242.695 46.2135 243.555 45.875C245.872 45.0677 248.151 44.2865 250.391 43.5312C252.63 42.75 254.909 41.9557 257.227 41.1484C257.826 40.9661 258.385 40.875 258.906 40.875H259.141C260.911 40.9531 262.943 41.3958 265.234 42.2031C265.599 42.3333 265.794 42.4115 265.82 42.4375C266.211 42.6198 266.784 42.8542 267.539 43.1406C267.721 43.1927 267.891 43.2188 268.047 43.2188C268.229 43.2188 268.411 43.1667 268.594 43.0625C269.193 42.6198 269.622 42.2682 269.883 42.0078C270.221 41.6172 270.664 41.4219 271.211 41.4219C271.497 41.4219 271.771 41.474 272.031 41.5781C272.839 41.9167 273.242 42.3724 273.242 42.9453V43.1406L266.289 73.4531C266.185 73.8177 266.133 74.1432 266.133 74.4297C266.133 75.1328 266.393 75.5885 266.914 75.7969C268.372 76.3698 269.102 77.0859 269.102 77.9453C269.102 78.0755 269.076 78.2057 269.023 78.3359C268.815 79.2995 268.164 79.7812 267.07 79.7812H257.578C256.562 79.7812 256.055 79.4036 256.055 78.6484V78.4141L256.406 76.8906ZM262.852 49.1172C262.201 48.388 261.159 47.6458 259.727 46.8906C258.32 46.1094 257.044 45.6927 255.898 45.6406H255.781C255.391 45.6406 254.974 45.7188 254.531 45.875C253.516 46.2135 252.5 46.5651 251.484 46.9297C250.495 47.2682 249.492 47.6068 248.477 47.9453C247.878 48.1797 247.383 48.4531 246.992 48.7656C245.065 50.4323 243.568 52.4375 242.5 54.7812C241.641 56.5781 241.016 58.362 240.625 60.1328C240.495 60.7057 240.391 61.2786 240.312 61.8516C240.13 63.0495 240.039 64.1562 240.039 65.1719C240.039 67.3073 240.417 69.1302 241.172 70.6406C242.24 72.8281 243.88 74.2474 246.094 74.8984C246.901 75.1589 247.747 75.2891 248.633 75.2891C248.919 75.2891 249.232 75.276 249.57 75.25C250.039 75.1979 250.677 75.0417 251.484 74.7812C252.083 74.599 253.073 74.2734 254.453 73.8047C255.833 73.3099 256.81 72.9583 257.383 72.75L262.852 49.1172ZM371.016 30.0156L361.016 73.4531C360.911 73.8177 360.859 74.1432 360.859 74.4297C360.859 75.1328 361.133 75.5885 361.68 75.7969C363.138 76.3698 363.867 77.0859 363.867 77.9453C363.867 78.0755 363.841 78.2057 363.789 78.3359C363.581 79.2995 362.93 79.7812 361.836 79.7812H348.594C347.5 79.7812 346.953 79.3385 346.953 78.4531C346.953 78.3229 346.966 78.1797 346.992 78.0234C347.227 77.112 348.047 76.4349 349.453 75.9922C350.859 75.5234 351.732 74.5729 352.07 73.1406L360.625 35.9922L329.453 80.9531H326.523L315.898 37.4766L307.617 73.4531C307.513 73.8177 307.461 74.1432 307.461 74.4297C307.461 75.1328 307.721 75.5885 308.242 75.7969C309.701 76.3698 310.43 77.0859 310.43 77.9453C310.43 78.0755 310.404 78.2057 310.352 78.3359C310.143 79.2995 309.492 79.7812 308.398 79.7812H298.477C297.383 79.7812 296.836 79.3385 296.836 78.4531C296.836 78.3229 296.849 78.1797 296.875 78.0234C297.109 77.112 297.93 76.4349 299.336 75.9922C300.742 75.5234 301.602 74.5859 301.914 73.1797L311.914 29.7422C312.018 29.3776 312.07 29.0521 312.07 28.7656C312.07 28.0625 311.797 27.6068 311.25 27.3984C309.818 26.8255 309.102 26.0964 309.102 25.2109C309.102 25.0807 309.128 24.9505 309.18 24.8203C309.388 23.8568 310.039 23.375 311.133 23.375H322.305L333.203 65.7969L363.047 23.375H374.492C375.586 23.375 376.133 23.8177 376.133 24.7031C376.133 24.8333 376.12 24.9766 376.094 25.1328C375.859 26.0703 375.026 26.7734 373.594 27.2422C372.188 27.7109 371.328 28.6354 371.016 30.0156ZM397.578 76.8906L387.578 80.2891C386.562 80.6016 385.716 80.7578 385.039 80.7578H383.398C379.388 80.5495 376.276 78.9089 374.062 75.8359C372.422 73.5182 371.602 70.8099 371.602 67.7109C371.602 66.7995 371.667 65.862 371.797 64.8984C371.953 63.7786 372.161 62.6979 372.422 61.6562C372.734 60.3021 373.125 58.974 373.594 57.6719C374.453 55.3542 375.859 53.0625 377.812 50.7969C378.802 49.599 380.312 48.3359 382.344 47.0078C383.073 46.5911 383.867 46.2135 384.727 45.875C387.044 45.0677 389.323 44.2865 391.562 43.5312C393.802 42.75 396.081 41.9557 398.398 41.1484C398.997 40.9661 399.557 40.875 400.078 40.875H400.312C402.083 40.9531 404.115 41.3958 406.406 42.2031C406.771 42.3333 406.966 42.4115 406.992 42.4375C407.383 42.6198 407.956 42.8542 408.711 43.1406C408.893 43.1927 409.062 43.2188 409.219 43.2188C409.401 43.2188 409.583 43.1667 409.766 43.0625C410.365 42.6198 410.794 42.2682 411.055 42.0078C411.393 41.6172 411.836 41.4219 412.383 41.4219C412.669 41.4219 412.943 41.474 413.203 41.5781C414.01 41.9167 414.414 42.3724 414.414 42.9453V43.1406L407.461 73.4531C407.357 73.8177 407.305 74.1432 407.305 74.4297C407.305 75.1328 407.565 75.5885 408.086 75.7969C409.544 76.3698 410.273 77.0859 410.273 77.9453C410.273 78.0755 410.247 78.2057 410.195 78.3359C409.987 79.2995 409.336 79.7812 408.242 79.7812H398.75C397.734 79.7812 397.227 79.4036 397.227 78.6484V78.4141L397.578 76.8906ZM404.023 49.1172C403.372 48.388 402.331 47.6458 400.898 46.8906C399.492 46.1094 398.216 45.6927 397.07 45.6406H396.953C396.562 45.6406 396.146 45.7188 395.703 45.875C394.688 46.2135 393.672 46.5651 392.656 46.9297C391.667 47.2682 390.664 47.6068 389.648 47.9453C389.049 48.1797 388.555 48.4531 388.164 48.7656C386.237 50.4323 384.74 52.4375 383.672 54.7812C382.812 56.5781 382.188 58.362 381.797 60.1328C381.667 60.7057 381.562 61.2786 381.484 61.8516C381.302 63.0495 381.211 64.1562 381.211 65.1719C381.211 67.3073 381.589 69.1302 382.344 70.6406C383.411 72.8281 385.052 74.2474 387.266 74.8984C388.073 75.1589 388.919 75.2891 389.805 75.2891C390.091 75.2891 390.404 75.276 390.742 75.25C391.211 75.1979 391.849 75.0417 392.656 74.7812C393.255 74.599 394.245 74.2734 395.625 73.8047C397.005 73.3099 397.982 72.9583 398.555 72.75L404.023 49.1172ZM429.336 73.4531C429.232 73.8177 429.18 74.1432 429.18 74.4297C429.18 75.1328 429.44 75.5885 429.961 75.7969C431.419 76.3698 432.148 77.0859 432.148 77.9453C432.148 78.0755 432.122 78.2057 432.07 78.3359C431.862 79.2995 431.224 79.7812 430.156 79.7812H416.914C415.82 79.7812 415.273 79.3385 415.273 78.4531C415.273 78.3229 415.286 78.1797 415.312 78.0234C415.547 77.112 416.367 76.4349 417.773 75.9922C419.18 75.5234 420.039 74.5859 420.352 73.1797L430.352 29.7422C430.456 29.3776 430.508 29.0521 430.508 28.7656C430.508 28.0625 430.234 27.6068 429.688 27.3984C428.255 26.8255 427.539 26.0964 427.539 25.2109C427.539 25.0807 427.565 24.9505 427.617 24.8203C427.826 23.8568 428.464 23.375 429.531 23.375C431.198 23.2969 432.891 23.0495 434.609 22.6328C436.354 22.1901 438.659 21.513 441.523 20.6016L429.336 73.4531ZM466.094 76.8906L456.094 80.2891C455.078 80.6016 454.232 80.7578 453.555 80.7578H451.914C447.904 80.5495 444.792 78.9089 442.578 75.8359C440.938 73.5182 440.117 70.8099 440.117 67.7109C440.117 66.7995 440.182 65.862 440.312 64.8984C440.469 63.7786 440.677 62.6979 440.938 61.6562C441.25 60.3021 441.641 58.974 442.109 57.6719C442.969 55.3542 444.375 53.0625 446.328 50.7969C447.318 49.599 448.828 48.3359 450.859 47.0078C451.589 46.5911 452.383 46.2135 453.242 45.875C455.56 45.0677 457.839 44.2865 460.078 43.5312C462.318 42.75 464.596 41.9557 466.914 41.1484C467.513 40.9661 468.073 40.875 468.594 40.875H468.828C470.599 40.9531 472.63 41.3958 474.922 42.2031C475.286 42.3333 475.482 42.4115 475.508 42.4375C475.898 42.6198 476.471 42.8542 477.227 43.1406C477.409 43.1927 477.578 43.2188 477.734 43.2188C477.917 43.2188 478.099 43.1667 478.281 43.0625C478.88 42.6198 479.31 42.2682 479.57 42.0078C479.909 41.6172 480.352 41.4219 480.898 41.4219C481.185 41.4219 481.458 41.474 481.719 41.5781C482.526 41.9167 482.93 42.3724 482.93 42.9453V43.1406L475.977 73.4531C475.872 73.8177 475.82 74.1432 475.82 74.4297C475.82 75.1328 476.081 75.5885 476.602 75.7969C478.06 76.3698 478.789 77.0859 478.789 77.9453C478.789 78.0755 478.763 78.2057 478.711 78.3359C478.503 79.2995 477.852 79.7812 476.758 79.7812H467.266C466.25 79.7812 465.742 79.4036 465.742 78.6484V78.4141L466.094 76.8906ZM472.539 49.1172C471.888 48.388 470.846 47.6458 469.414 46.8906C468.008 46.1094 466.732 45.6927 465.586 45.6406H465.469C465.078 45.6406 464.661 45.7188 464.219 45.875C463.203 46.2135 462.188 46.5651 461.172 46.9297C460.182 47.2682 459.18 47.6068 458.164 47.9453C457.565 48.1797 457.07 48.4531 456.68 48.7656C454.753 50.4323 453.255 52.4375 452.188 54.7812C451.328 56.5781 450.703 58.362 450.312 60.1328C450.182 60.7057 450.078 61.2786 450 61.8516C449.818 63.0495 449.727 64.1562 449.727 65.1719C449.727 67.3073 450.104 69.1302 450.859 70.6406C451.927 72.8281 453.568 74.2474 455.781 74.8984C456.589 75.1589 457.435 75.2891 458.32 75.2891C458.607 75.2891 458.919 75.276 459.258 75.25C459.727 75.1979 460.365 75.0417 461.172 74.7812C461.771 74.599 462.76 74.2734 464.141 73.8047C465.521 73.3099 466.497 72.9583 467.07 72.75L472.539 49.1172ZM503.75 44.3906C504.193 44.2344 505.013 43.9479 506.211 43.5312C507.409 43.1146 508.542 42.724 509.609 42.3594C512.292 41.5 514.987 40.9401 517.695 40.6797C518.06 40.6536 518.424 40.6406 518.789 40.6406C521.263 40.6406 523.424 41.474 525.273 43.1406C526.94 44.7031 527.773 47.2422 527.773 50.7578C527.773 53.1536 527.396 56.0182 526.641 59.3516L523.398 73.4531C523.294 73.8177 523.242 74.1432 523.242 74.4297C523.242 75.1328 523.503 75.5885 524.023 75.7969C525.482 76.3698 526.211 77.0859 526.211 77.9453C526.211 78.0755 526.185 78.2057 526.133 78.3359C525.924 79.2995 525.286 79.7812 524.219 79.7812H514.727C513.711 79.7812 513.203 79.4036 513.203 78.6484V78.4141L517.656 59.1172C518.203 56.7734 518.477 54.7292 518.477 52.9844C518.477 50.6406 517.995 48.8438 517.031 47.5938C516.042 46.3698 514.635 45.7578 512.812 45.7578C511.693 45.7578 510.391 45.9922 508.906 46.4609C508.281 46.6432 507.5 46.9036 506.562 47.2422C505.625 47.5547 504.792 47.8411 504.062 48.1016C503.411 48.3099 502.982 48.4531 502.773 48.5312L497.07 73.4531C496.966 73.8177 496.914 74.1432 496.914 74.4297C496.914 75.1328 497.174 75.5885 497.695 75.7969C499.154 76.3698 499.883 77.0859 499.883 77.9453C499.883 78.0755 499.857 78.2057 499.805 78.3359C499.596 79.2995 498.958 79.7812 497.891 79.7812H484.648C483.555 79.7812 483.008 79.3385 483.008 78.4531C483.008 78.3229 483.021 78.1797 483.047 78.0234C483.281 77.112 484.102 76.4349 485.508 75.9922C486.914 75.5234 487.773 74.5859 488.086 73.1797L493.828 48.1406C493.932 47.8021 493.984 47.4896 493.984 47.2031C493.984 46.5 493.711 46.0443 493.164 45.8359C491.732 45.263 491.016 44.5339 491.016 43.6484C491.016 43.5182 491.042 43.388 491.094 43.2578C491.302 42.2943 491.94 41.8125 493.008 41.8125C494.674 41.7344 496.367 41.474 498.086 41.0312C499.831 40.5885 502.135 39.9115 505 39L503.75 44.3906ZM559.297 70.4453L564.258 49.1172C563.607 48.388 562.565 47.6458 561.133 46.8906C559.727 46.1094 558.451 45.6927 557.305 45.6406H557.188C556.797 45.6406 556.38 45.7188 555.938 45.875C554.922 46.2135 553.906 46.5651 552.891 46.9297C551.901 47.2682 550.898 47.6068 549.883 47.9453C549.284 48.1797 548.789 48.4531 548.398 48.7656C546.471 50.4323 544.974 52.4375 543.906 54.7812C543.047 56.5781 542.422 58.362 542.031 60.1328C541.901 60.7057 541.797 61.2786 541.719 61.8516C541.536 63.0495 541.445 64.1562 541.445 65.1719C541.445 67.3073 541.823 69.1302 542.578 70.6406C543.646 72.8281 545.286 74.2474 547.5 74.8984C548.307 75.1589 549.154 75.2891 550.039 75.2891C550.326 75.2891 550.638 75.276 550.977 75.25C551.445 75.1979 552.083 75.0417 552.891 74.7812C553.49 74.599 554.466 74.2734 555.82 73.8047C557.201 73.3359 558.164 72.9974 558.711 72.7891L559.258 70.4453H559.297ZM557.773 76.8906L547.812 80.2891C546.797 80.6016 545.951 80.7578 545.273 80.7578H543.633C539.622 80.5495 536.51 78.9089 534.297 75.8359C532.656 73.5182 531.836 70.8099 531.836 67.7109C531.836 66.7995 531.901 65.862 532.031 64.8984C532.188 63.7786 532.396 62.6979 532.656 61.6562C532.969 60.3021 533.359 58.974 533.828 57.6719C534.688 55.3542 536.094 53.0625 538.047 50.7969C539.036 49.599 540.547 48.3359 542.578 47.0078C543.307 46.5911 544.102 46.2135 544.961 45.875C547.279 45.0677 549.557 44.2865 551.797 43.5312C554.036 42.75 556.315 41.9557 558.633 41.1484C559.232 40.9661 559.792 40.875 560.312 40.875H560.547C562.318 40.9531 564.349 41.3958 566.641 42.2031C567.005 42.3333 567.201 42.4115 567.227 42.4375C567.617 42.6198 568.19 42.8542 568.945 43.1406C569.128 43.1927 569.297 43.2188 569.453 43.2188C569.635 43.2188 569.818 43.1667 570 43.0625C570.599 42.6198 571.029 42.2682 571.289 42.0078C571.628 41.6172 572.07 41.4219 572.617 41.4219C572.904 41.4219 573.177 41.474 573.438 41.5781C574.245 41.9167 574.648 42.3724 574.648 42.9453V43.1406L564.727 86.1484C563.685 90.6276 562.357 93.4401 560.742 94.5859C559.154 95.7578 557.096 96.7734 554.57 97.6328L542.852 101.656C541.862 101.995 541.029 102.164 540.352 102.164C539.648 102.164 539.089 102.151 538.672 102.125C534.688 101.969 531.589 100.328 529.375 97.2031C528.255 95.5625 527.487 93.4401 527.07 90.8359C529.987 89.7943 533.151 88.7005 536.562 87.5547C536.797 89.5078 537.161 90.9922 537.656 92.0078C538.75 94.1953 540.378 95.6146 542.539 96.2656C543.346 96.5 544.18 96.6172 545.039 96.6172C545.378 96.6172 545.703 96.6042 546.016 96.5781C546.51 96.526 547.122 96.3958 547.852 96.1875C548.19 96.0573 548.633 95.901 549.18 95.7188C549.727 95.5365 550.286 95.3411 550.859 95.1328C552.031 94.612 553.021 93.4531 553.828 91.6562C554.635 89.8854 555.091 88.7135 555.195 88.1406L557.773 76.8906Z" fill="#FED136"/>
</svg>
